<?xml version="1.0" encoding="iso-8859-1"?>
<!-- Generator: Adobe Illustrator 16.0.0, SVG Export Plug-In . SVG Version: 6.00 Build 0)  -->
<!DOCTYPE svg PUBLIC "-//W3C//DTD SVG 1.1//EN" "http://www.w3.org/Graphics/SVG/1.1/DTD/svg11.dtd">
<svg version="1.1" id="Capa_1" xmlns="http://www.w3.org/2000/svg" xmlns:xlink="http://www.w3.org/1999/xlink" x="0px" y="0px"
	 width="93.339px" height="93.34px" viewBox="0 0 93.339 93.34" style="enable-background:new 0 0 93.339 93.34;"
	 xml:space="preserve">
<g>
	<g>
		<path d="M0.193,46.482C15.621,31.044,31.107,15.549,46.646,0c15.457,15.331,30.953,30.701,46.501,46.123
			C77.724,61.911,62.352,77.648,47.025,93.34C31.369,77.675,15.761,62.059,0.193,46.482z M32.094,24.886
			c-0.064,0.014-0.128,0.028-0.191,0.042c-0.051,0.179-0.112,0.355-0.147,0.537c-0.678,3.403-1.354,6.806-2.027,10.209
			c-1.613,8.138-3.226,16.276-4.836,24.415c-0.141,0.71-0.109,0.767,0.504,0.767c3.257,0.004,6.515-0.004,9.772,0.01
			c0.443,0.002,0.639-0.166,0.673-0.59c0.052-0.657,0.114-1.312,0.182-1.967c0.339-3.314,0.679-6.627,1.022-9.938
			c0.104-0.991,0.219-1.979,0.33-2.968c0.041-0.007,0.083-0.013,0.124-0.021c3.221,5.09,6.444,10.182,9.753,15.409
			c3.224-5.203,6.34-10.229,9.498-15.326c0.078,0.16,0.117,0.205,0.123,0.255c0.59,4.901,1.185,9.803,1.756,14.707
			c0.064,0.545,0.25,0.76,0.832,0.756c3.334-0.023,6.668-0.01,10.004-0.014c0.705,0,0.738-0.045,0.563-0.739
			c-2.909-11.503-5.821-23.004-8.735-34.505c-0.047-0.19-0.131-0.372-0.196-0.556c-0.058-0.006-0.115-0.013-0.171-0.021
			c-4.48,7.416-8.961,14.83-13.494,22.333C42.274,40.015,37.185,32.45,32.094,24.886z"/>
	</g>
</g>
<g>
</g>
<g>
</g>
<g>
</g>
<g>
</g>
<g>
</g>
<g>
</g>
<g>
</g>
<g>
</g>
<g>
</g>
<g>
</g>
<g>
</g>
<g>
</g>
<g>
</g>
<g>
</g>
<g>
</g>
</svg>
